# xmcd
#
# Track frame offsets:
# 150
# 17138
# 39303
# 56646
# 73191
# 90432
# 108424
# 127893
#
# Disc length: 2019 seconds
#
# Revision: 0
# Processed by: cddbd v1.5.1PL2 Copyright (c) Steve Scherf et al.
# Submitted via: MacMP3 Pro 5.0 (http://mp3.act2.co.jp/)
#
DISCID=6207e108
DTITLE=COCKPIT EXCITING90'S - COCKPIT EXCITING90'S
DYEAR=1900
DGENRE=
TTITLE0=AMOUR ET FIERTE(PRIDE)//LILIANE
TTITLE1=WHEN I SEE YOUR SMILE/BAD ENGLI
TTITLE2=UN HOMME ET UNE FEMME/CLEMENTIN
TTITLE3=I'M NOT IN LOVE/WILL TO POWER
TTITLE4=IFWEHOLDONTOGETHER/THE PACIFIST
TTITLE5=UNCONDITIONAL LOVE/SUSANNA H.
TTITLE6=SHOWER ME WITHYOUR LOVE/SURFACE
TTITLE7=YOU ARE EVERYTHING/REGINA BELLE
EXTD=
EXTT0=
EXTT1=
EXTT2=
EXTT3=
EXTT4=
EXTT5=
EXTT6=
EXTT7=
PLAYORDER=
